<?xml version="1.0" encoding="utf-8"?>
<svg viewBox="0 0 1000 224" xmlns="http://www.w3.org/2000/svg">
  <g transform="matrix(0.6666669845581055, 0, 0, 0.6666669845581055, 0.14787501096714095, 1.1748919486999512)" id="g9">
    <svg viewBox="0 0 396 88" data-background-color="#3742fa" preserveAspectRatio="xMidYMid" height="333" width="1500" version="1.1" id="svg9">
      <g id="tight-bounds" transform="translate(0.24,0.05663759)">
        <svg viewBox="0 0 395.52 87.886725" height="87.886726" width="395.51999" version="1.1" id="svg8">
          <g id="g8">
            <svg viewBox="0 0 541.08099 120.23118" height="87.886726" width="395.51999" version="1.1" id="svg7">
              <g transform="translate(145.56099,2.1169503)" id="g4">
                <svg viewBox="0 0 395.52 115.99728" height="115.99728" width="395.51999" version="1.1" id="svg4">
                  <g id="textblocktransform">
                    <svg viewBox="0 0 395.52 115.99728" height="115.99728" width="395.51999" id="textblock" version="1.1">
                      <g id="g3">
                        <svg viewBox="0 0 395.52 115.99728" height="115.99728" width="395.51999" version="1.1" id="svg3">
                          <rect width="395.51999" height="115.99728" x="0" y="0" opacity="1" data-fill-palette-color="tertiary" id="rect2" style="fill: rgb(55, 66, 250);"/>
                          <g transform="translate(23.6076,23.6076)" id="g2">
                            <svg width="348.30481" viewBox="0.75 -35.5 182.28 36" height="68.782082" data-palette-color="#3742fa" version="1.1" id="svg2">
                              <path d="M 4.3,0 0.75,-35 h 5.3 L 8.5,-8.1 H 8.6 L 11.2,-35 h 6 l 2.6,26.9 h 0.1 L 22.35,-35 H 27.1 L 23.55,0 H 16.7 L 14.2,-23.6 H 14.1 L 11.6,0 Z m 25.6,0 v -35 h 5.5 V 0 Z m 16.75,0.5 q -4,0 -6.05,-2.28 -2.05,-2.27 -2.05,-6.52 v 0 -2 h 5.2 v 2.4 q 0,3.4 2.85,3.4 v 0 q 1.4,0 2.12,-0.83 0.73,-0.82 0.73,-2.67 v 0 q 0,-2.2 -1,-3.88 -1,-1.67 -3.7,-4.02 v 0 q -3.4,-3 -4.75,-5.43 -1.35,-2.42 -1.35,-5.47 v 0 q 0,-4.15 2.1,-6.43 2.1,-2.27 6.1,-2.27 v 0 q 3.95,0 5.97,2.27 2.03,2.28 2.03,6.53 v 0 1.45 h -5.2 v -1.8 q 0,-1.8 -0.7,-2.63 -0.7,-0.82 -2.05,-0.82 v 0 q -2.75,0 -2.75,3.35 v 0 q 0,1.9 1.02,3.55 1.03,1.65 3.73,4 v 0 q 3.45,3 4.75,5.45 1.3,2.45 1.3,5.75 v 0 q 0,4.3 -2.13,6.6 -2.12,2.3 -6.17,2.3 z M 58.09,0 v -35 h 5.5 v 14.25 h 5.9 V -35 h 5.5 V 0 h -5.5 v -15.75 h -5.9 V 0 Z m 21,0 v -35 h 5.5 v 30 h 9.05 v 5 z m 17.2,0 v -35 h 5.5 V 0 Z m 9.6,0 v -35 h 6.9 l 5.35,20.95 h 0.1 V -35 h 4.9 V 0 h -5.65 l -6.6,-25.55 h -0.1 V 0 Z m 21.34,0 v -35 h 5.5 v 14.75 l 7,-14.75 h 5.5 l -6.55,12.85 6.65,22.15 h -5.75 l -4.65,-15.6 -2.2,4.45 V 0 Z m 20.7,0 v -35 h 15 v 5 h -9.5 v 9.25 h 7.55 v 5 h -7.55 V -5 h 9.5 v 5 z m 18.15,0 v -35 h 8.15 q 4.25,0 6.2,1.98 1.95,1.97 1.95,6.07 v 0 2.15 q 0,5.45 -3.6,6.9 v 0 0.1 q 2,0.6 2.82,2.45 0.83,1.85 0.83,4.95 v 0 6.15 q 0,1.5 0.1,2.42 0.1,0.93 0.5,1.83 v 0 h -5.6 q -0.3,-0.85 -0.4,-1.6 -0.1,-0.75 -0.1,-2.7 v 0 -6.4 q 0,-2.4 -0.78,-3.35 -0.77,-0.95 -2.67,-0.95 v 0 h -1.9 V 0 Z m 5.5,-20 h 2 q 1.65,0 2.47,-0.85 0.83,-0.85 0.83,-2.85 v 0 -2.7 q 0,-1.9 -0.68,-2.75 -0.67,-0.85 -2.12,-0.85 v 0 h -2.5 z" opacity="1" fill="#ffffff" class="wordmark-text-0" data-fill-palette-color="quaternary" id="text-0"/>
                            </svg>
                          </g>
                        </svg>
                      </g>
                    </svg>
                  </g>
                </svg>
              </g>
              <g id="g7">
                <svg viewBox="0 0 133.75719 120.23118" height="120.23118" width="133.75719" version="1.1" id="svg6">
                  <g id="g6">
                    <svg version="1.1" x="0" y="0" viewBox="5 10 89 80" enable-background="new 0 0 100 100" height="120.23118" width="133.75719" class="icon-icon-0" data-fill-palette-color="accent" id="icon-0">
                      <g fill="#ffffff" data-fill-palette-color="accent" id="g5">
                        <path d="M 85,20 V 10 H 55 V 20 H 45 V 10 H 15 V 20 H 5 v 30 h 10 v 11 h 9 V 62.854 70 H 34.602 35 v 11 h 9 v 9 h 12 v -9 h 9 V 70 h 11 v -9 h 9 V 50 h 9 V 20 Z M 27,31.114 V 42 H 16 V 31.114 21 H 27 Z M 84,49 H 74 V 60 H 64 V 70 H 54 V 80 H 48 V 30 h 8 v -9 h 28 z" data-fill-palette-color="accent" id="path4" style="fill: rgb(55, 66, 250);"/>
                      </g>
                    </svg>
                  </g>
                </svg>
              </g>
            </svg>
          </g>
        </svg>
        <rect width="395.51999" height="87.886726" fill="none" stroke="none" visibility="hidden" id="rect8" x="0" y="0"/>
      </g>
    </svg>
  </g>
</svg>